<?xml version="1.0" encoding="UTF-8"?>
<svg version="1.1" xmlns="http://www.w3.org/2000/svg" width="973" height="973">
<path d="M0 0 C0.9862886 -0.00226556 1.97257719 -0.00453111 2.98875332 -0.00686532 C6.27986778 -0.0131739 9.57094072 -0.01237795 12.86206055 -0.0115509 C15.22821099 -0.01454459 17.59436094 -0.01794761 19.96051025 -0.02172852 C26.38293337 -0.03055725 32.80534316 -0.03290633 39.22777176 -0.0335443 C43.24957639 -0.03403963 47.2713787 -0.0363295 51.29318237 -0.03904152 C64.62669992 -0.04784763 77.96020943 -0.05246168 91.2937299 -0.05171105 C92.01172823 -0.05167109 92.72972656 -0.05163113 93.46948242 -0.05158997 C94.18837296 -0.05154909 94.90726351 -0.0515082 95.64793861 -0.05146609 C107.25804503 -0.05106099 118.86811881 -0.06059603 130.47821581 -0.07472833 C142.43863852 -0.08917026 154.39904541 -0.09599406 166.35947704 -0.09513456 C173.05815859 -0.09480497 179.75679874 -0.09764531 186.45547485 -0.10831261 C192.77236934 -0.11809649 199.08919257 -0.11800334 205.40608978 -0.11079597 C207.70519873 -0.10976237 210.00431235 -0.11203871 212.30341339 -0.11815643 C242.73597726 -0.19378667 274.52679636 -0.05786146 300.94018555 16.86808777 C303.06906793 18.27261515 303.06906793 18.27261515 306.0612793 19.63371277 C319.79184508 26.79748622 332.00746056 39.80344158 340.3112793 52.69621277 C341.70629823 55.22544679 341.70629823 55.22544679 343.9362793 56.13371277 C344.79280012 58.17013474 345.57256259 60.2391609 346.3112793 62.32121277 C347.64517532 65.92117191 348.8037581 68.93493098 350.9362793 72.13371277 C360.87226457 87.03769068 361.09580483 105.90883373 361.06999207 123.16781616 C361.07225762 124.30553461 361.07452318 125.44325306 361.07685739 126.61544782 C361.08313554 130.38871799 361.08237204 134.16195166 361.08154297 137.93522644 C361.08399787 140.65667352 361.08791396 143.37811812 361.09172058 146.0995636 C361.09998627 152.70189259 361.10277356 159.30421264 361.10333296 165.90654638 C361.10381004 171.27936668 361.10587434 176.65218406 361.10903358 182.02500343 C361.11782884 197.29618748 361.1224547 212.56736453 361.12170311 227.83855113 C361.12164318 229.07048988 361.12164318 229.07048988 361.12158203 230.32731628 C361.12154115 231.1496247 361.12150027 231.97193311 361.12145815 232.81915996 C361.12105195 246.13692977 361.13061792 259.45467126 361.1447204 272.77243289 C361.15912455 286.48450384 361.16598837 300.19656103 361.16512662 313.90863973 C361.16479606 321.59185789 361.16748121 329.27504637 361.17830467 336.95825768 C361.18746301 343.50076204 361.18954154 350.04322325 361.18279525 356.58573129 C361.17955676 359.91561359 361.18048782 363.24534669 361.1881485 366.57523155 C361.2671603 403.32200293 361.2671603 403.32200293 355.8112793 419.32121277 C355.50561035 420.24337585 355.19994141 421.16553894 354.88500977 422.11564636 C350.33484416 435.34222902 343.62371245 446.16760863 334.9362793 457.13371277 C334.36264648 457.93422058 333.78901367 458.73472839 333.19799805 459.55949402 C326.29841724 469.09375961 316.57688938 475.64783641 306.90893555 482.13761902 C305.23146085 483.26401793 303.56358708 484.4061486 301.93237305 485.59855652 C295.65584737 489.99352863 288.21327273 492.07812308 280.99926758 494.44474792 C279.21538019 495.04050298 277.44707897 495.6825537 275.68237305 496.33293152 C258.06557439 502.51144369 238.20654816 501.42428907 219.796875 501.37663269 C217.35010731 501.37770856 214.90333988 501.37965174 212.45657349 501.38238525 C206.55583626 501.38669139 200.65515067 501.38185724 194.7544233 501.37253495 C187.85680917 501.3620381 180.95920665 501.36222409 174.06158604 501.36270753 C161.74172909 501.36320577 149.4218983 501.3541109 137.10205078 501.33952332 C125.19449385 501.32543157 113.28695991 501.31835317 101.37939453 501.3190155 C100.27833237 501.31907544 100.27833237 501.31907544 99.15502653 501.31913658 C98.05571438 501.31919711 98.05571438 501.31919711 96.93419391 501.31925887 C83.30548921 501.31995162 69.67679411 501.31404332 56.04809255 501.30510565 C51.25930353 501.30211103 46.4705163 501.30102871 41.68172646 501.30057335 C35.21941504 501.29981335 28.75712267 501.29339842 22.29481888 501.28340721 C19.93674172 501.28051085 17.57866183 501.27925096 15.22058296 501.27983475 C4.77096679 501.2814415 -5.66837546 501.26024078 -16.10676575 500.73010254 C-16.80307026 500.69718713 -17.49937477 500.66427172 -18.21677941 500.63035887 C-25.75537834 500.18306336 -32.87817492 498.35921667 -40.0637207 496.13371277 C-40.75852539 495.92085632 -41.45333008 495.70799988 -42.16918945 495.48869324 C-56.49565204 491.00351882 -69.5347691 484.88897951 -81.0637207 475.13371277 C-81.98024414 474.41054871 -82.89676758 473.68738464 -83.84106445 472.94230652 C-89.1826546 468.704884 -93.93394505 464.55665049 -98.0637207 459.13371277 C-98.84231445 458.13340027 -99.6209082 457.13308777 -100.4230957 456.10246277 C-107.0637207 447.4644925 -107.0637207 447.4644925 -107.0637207 445.13371277 C-108.0537207 444.80371277 -109.0437207 444.47371277 -110.0637207 444.13371277 C-114.93266933 436.09512679 -117.97682426 426.96541115 -120.8762207 418.07121277 C-121.1659375 417.19892029 -121.4556543 416.32662781 -121.75415039 415.42790222 C-126.70474607 399.65334515 -126.35695695 383.81302769 -126.32517004 367.45018268 C-126.32060373 363.96682138 -126.32764981 360.4834794 -126.33312988 357.00012207 C-126.34198135 350.19405171 -126.34012092 343.38802568 -126.3343046 336.58195364 C-126.3297713 331.046077 -126.32918239 325.51021269 -126.33135223 319.97433472 C-126.3316587 319.18374502 -126.33196517 318.39315532 -126.33228092 317.57860836 C-126.33292043 315.97209108 -126.33356886 314.36557379 -126.3342261 312.75905651 C-126.33991696 297.72641657 -126.33339109 282.6938011 -126.32262537 267.66116518 C-126.31369099 254.78758156 -126.31524339 241.91403402 -126.32446289 229.04045105 C-126.33518757 214.05830305 -126.33936775 199.07617644 -126.33323836 184.09402514 C-126.33260133 182.4937137 -126.33197258 180.89340226 -126.33135223 179.29309082 C-126.33104368 178.50589097 -126.33073513 177.71869112 -126.33041723 176.90763673 C-126.32869688 171.38416914 -126.33159111 165.86071523 -126.33631134 160.33724976 C-126.34194466 153.59775497 -126.34035252 146.85830672 -126.32974985 140.11881721 C-126.32452593 136.68615783 -126.32237978 133.25357578 -126.32904816 129.82091713 C-126.35890368 109.56467023 -126.30125232 90.50511811 -116.66137695 72.17277527 C-115.08489667 69.17399371 -113.640052 66.1320586 -112.1887207 63.07121277 C-109.10072638 56.91126565 -105.30235702 51.55017855 -101.0637207 46.13371277 C-100.32766602 45.18109558 -99.59161133 44.22847839 -98.83325195 43.24699402 C-94.33284551 37.56920069 -89.74438416 32.6237576 -84.0637207 28.13371277 C-83.20391602 27.42601746 -82.34411133 26.71832214 -81.45825195 25.98918152 C-73.53420271 19.71196573 -65.22310659 15.31487786 -56.0637207 11.13371277 C-54.30801758 10.29646667 -54.30801758 10.29646667 -52.5168457 9.44230652 C-41.47824136 4.54852526 -29.95851133 2.78225787 -18.0637207 1.13371277 C-16.89391663 0.9635197 -15.72411255 0.79332663 -14.51885986 0.61797619 C-9.67399562 0.01884142 -4.87641018 -0.00830106 0 0 Z " fill="#0F0F0F" transform="translate(369.063720703125,163.8662872314453)"/>
<path d="M0 0 C2.0404411 -0.00322536 4.08088198 -0.00659031 6.12132263 -0.01008606 C10.38842299 -0.01604417 14.65550321 -0.01792969 18.92260742 -0.01733398 C23.23645256 -0.01725316 27.55019052 -0.02412913 31.86401367 -0.0378418 C72.97699493 -0.16626056 72.97699493 -0.16626056 90.7109375 0.9921875 C91.81603165 1.06154007 92.92112579 1.13089264 94.05970764 1.2023468 C107.11547214 2.22168199 118.80181137 5.46266389 127.99609375 15.23046875 C135.1201446 23.81366254 140.19962214 33.57426017 145.06445312 43.54125977 C147.39101353 48.29170914 149.93333813 52.76133532 152.87109375 57.16796875 C156.55615574 56.48153563 160.16727059 55.58517891 163.79785156 54.65649414 C181.30891273 50.26705999 181.30891273 50.26705999 188.87109375 53.41796875 C191.64543298 55.84551557 193.60880522 57.84341165 194.33984375 61.53515625 C194.3553125 62.77652344 194.3553125 62.77652344 194.37109375 64.04296875 C194.4175 65.27660156 194.4175 65.27660156 194.46484375 66.53515625 C193.6145296 70.30562821 191.72819782 72.68650999 188.87109375 75.16796875 C186.04177376 76.89726567 183.10065005 78.23230912 180.05859375 79.54296875 C179.27033203 79.89746094 178.48207031 80.25195312 177.66992188 80.6171875 C175.74314066 81.48131968 173.80792762 82.32660982 171.87109375 83.16796875 C172.25990723 83.71461182 172.6487207 84.26125488 173.04931641 84.82446289 C176.21494205 89.32612771 178.98234595 93.9934862 181.55859375 98.85546875 C182.11933594 99.91121094 182.68007813 100.96695313 183.2578125 102.0546875 C188.49596666 114.14860189 188.31924112 127.0175767 188.26953125 139.91796875 C188.27155719 141.78930779 188.27447293 143.66064605 188.27822876 145.53198242 C188.28261893 149.4248823 188.2763229 153.3175738 188.26220703 157.21044922 C188.24502125 162.19135893 188.25503629 167.17178689 188.27292442 172.15267944 C188.28377085 176.00461454 188.28031361 179.85643547 188.27254105 183.70837402 C188.27054635 185.54553282 188.27297252 187.38270212 188.27997971 189.21984863 C188.28761902 191.78226227 188.27595991 194.34389445 188.25927734 196.90625 C188.26535004 197.65749649 188.27142273 198.40874298 188.27767944 199.18275452 C188.21036296 204.77863787 186.98773307 208.9193341 183.1171875 213.03125 C182.52035156 213.50949219 181.92351562 213.98773437 181.30859375 214.48046875 C180.70917969 214.97160156 180.10976563 215.46273437 179.4921875 215.96875 C174.33529307 219.78360926 166.60150263 218.5148703 160.40649414 218.57299805 C158.68688772 218.59449111 156.9673881 218.62849021 155.24829102 218.67553711 C137.68430927 219.15152118 137.68430927 219.15152118 131.40649414 213.85473633 C126.34426734 208.29345076 126.43270613 202.82935537 126.34375 195.73828125 C126.28445694 193.87578161 126.08689438 192.01887412 125.87109375 190.16796875 C122.22206063 187.73528 119.53418488 187.88817697 115.31738281 187.91400146 C114.54106129 187.91088148 113.76473976 187.9077615 112.96489334 187.90454698 C110.35542529 187.89654972 107.74618866 187.9028973 105.13671875 187.90917969 C103.26924503 187.90647059 101.40177238 187.90291012 99.53430176 187.89855957 C94.455901 187.88942362 89.37758129 187.89298479 84.29917908 187.89931774 C78.99144264 187.90437149 73.68371327 187.89968803 68.37597656 187.89654541 C59.46157583 187.89290394 50.54720821 187.89770961 41.6328125 187.90722656 C31.31779451 187.91811145 21.00285558 187.914586 10.68783951 187.90357375 C1.84108934 187.89450603 -7.00563698 187.89321308 -15.85239029 187.89845109 C-21.14033555 187.90157363 -26.42824363 187.90197237 -31.71618652 187.89537811 C-36.6868918 187.88961276 -41.65749488 187.89358666 -46.62818909 187.90516663 C-48.45556976 187.90781756 -50.282959 187.90704077 -52.1103363 187.9026413 C-54.59873989 187.89720146 -57.08681296 187.90400083 -59.57519531 187.91400146 C-60.30369061 187.90954002 -61.0321859 187.90507858 -61.78275681 187.90048194 C-65.45872506 187.92927009 -66.98215166 188.07013236 -70.12890625 190.16796875 C-70.48394521 193.92016999 -70.56532404 197.57602519 -70.56835938 201.33984375 C-70.69707418 206.73698849 -71.37740417 209.99556643 -75.12890625 214.16796875 C-80.49030961 217.84463578 -84.26497779 218.75982111 -90.6953125 218.6640625 C-91.49243149 218.66551773 -92.28955048 218.66697296 -93.11082458 218.66847229 C-94.78575316 218.66682157 -96.46069822 218.65535353 -98.13549805 218.63452148 C-100.6879968 218.6055075 -103.23842185 218.61394096 -105.79101562 218.62695312 C-107.42579126 218.62071616 -109.0605604 218.61232554 -110.6953125 218.6015625 C-111.45171524 218.60449814 -112.20811798 218.60743378 -112.98744202 218.61045837 C-118.45524648 218.51382667 -122.53713812 217.44735097 -126.69122887 213.79395294 C-131.03886801 208.87686055 -131.57083695 202.29559618 -131.51708984 195.98632812 C-131.5223468 195.21106781 -131.52760376 194.4358075 -131.53302002 193.63705444 C-131.54613132 191.09506558 -131.53750677 188.55371311 -131.52734375 186.01171875 C-131.52936867 184.22302126 -131.53228358 182.43432457 -131.53604126 180.64562988 C-131.54045405 176.90006638 -131.53407344 173.15471807 -131.52001953 169.40917969 C-131.50302765 164.653273 -131.51271165 159.8978781 -131.53073692 155.14199066 C-131.54168841 151.44576312 -131.53807531 147.7496525 -131.53035355 144.05342102 C-131.52837755 142.30267779 -131.53071727 140.55192329 -131.53779221 138.80119324 C-131.60678942 116.91018191 -128.43421757 99.33434233 -114.12890625 82.16796875 C-114.92941406 81.93013672 -114.92941406 81.93013672 -115.74609375 81.6875 C-123.01813026 79.41027057 -130.40071131 77.02607773 -135.75390625 71.41796875 C-137.54714538 67.17940354 -138.08333397 63.69745622 -137.12890625 59.16796875 C-135.18216685 55.60142329 -133.05148351 53.4754945 -129.12890625 52.16796875 C-120.72571357 51.2151904 -113.01769617 53.1337838 -104.94921875 55.1953125 C-102.01128334 55.94331446 -99.10192572 56.59050578 -96.12890625 57.16796875 C-95.62460083 56.21096069 -95.62460083 56.21096069 -95.11010742 55.23461914 C-83.71813132 33.6979636 -83.71813132 33.6979636 -77.25390625 23.60546875 C-76.83906982 22.94748291 -76.4242334 22.28949707 -75.99682617 21.61157227 C-69.67971762 11.97045838 -61.6464683 5.20302656 -50.10107422 2.734375 C-45.94466275 2.04663041 -41.77360683 1.63315135 -37.57055664 1.3392334 C-35.83151889 1.2172521 -34.09374458 1.07665241 -32.35717773 0.92346191 C-21.56935668 0.02838993 -10.81839402 0.00407573 0 0 Z " fill="#FCFCFC" transform="translate(458.12890625,394.83203125)"/>
<path d="M0 0 C15.89764918 12.5977455 25.99623956 28.64296401 28.875 48.875 C30.31409901 66.58698782 23.74686107 82.97635733 13.70703125 97.25390625 C11.87054102 99.80090387 11.87054102 99.80090387 10.45703125 102.33203125 C8.50150134 105.47536452 6.16915631 108.21237404 3.75 111 C2.75302718 112.16070385 1.75694496 113.32217321 0.76171875 114.484375 C0.26978027 115.05865234 -0.2221582 115.63292969 -0.72900391 116.22460938 C-2.67849545 118.52935979 -4.55485323 120.89051024 -6.4375 123.25 C-12.30543053 130.45586083 -18.71538207 137.15412365 -25.125 143.875 C-26.011875 144.81601562 -26.89875 145.75703125 -27.8125 146.7265625 C-35.08783639 154.27226613 -35.08783639 154.27226613 -40.125 155.875 C-44.62167546 155.51941446 -46.72302854 153.81387425 -49.9375 150.75 C-52.9606577 147.90572737 -55.98456931 145.13921489 -59.1875 142.5 C-63.24758419 138.97692093 -66.43858588 134.90159905 -69.76953125 130.69921875 C-72.10291557 127.90147934 -74.56503094 125.40108429 -77.1875 122.875 C-81.37060199 118.78227367 -84.79552767 114.50533639 -88.12890625 109.703125 C-89.47469948 107.79636512 -90.88095314 105.93105851 -92.33984375 104.109375 C-104.73412023 88.6006393 -112.91463468 68.9684203 -111.35693359 48.86572266 C-108.82788033 27.15845917 -96.81184284 11.13833801 -80.43359375 -2.33984375 C-57.01345028 -18.68031026 -22.68519416 -16.19134087 0 0 Z " fill="#FCFCFC" transform="translate(528.125,223.125)"/>
<path d="M0 0 C3.62580931 0.01136109 7.25132369 0.00461117 10.87712288 -0.00687408 C26.45375223 -0.04865992 41.97657005 0.26296405 57.52954102 1.15136719 C58.59135306 1.20961292 58.59135306 1.20961292 59.67461586 1.26903534 C86.19122274 2.75995795 86.19122274 2.75995795 93.65063477 11.03808594 C95.80523281 13.88480346 97.04907227 15.62977406 97.04907227 19.26074219 C97.70907227 19.26074219 98.36907227 19.26074219 99.04907227 19.26074219 C99.4499707 20.07414062 99.85086914 20.88753906 100.26391602 21.72558594 C101.11663086 23.44455078 101.11663086 23.44455078 101.98657227 25.19824219 C102.44386719 26.12431274 102.44386719 26.12431274 102.91040039 27.0690918 C104.7144626 30.69207001 106.58520872 34.26280076 108.55297852 37.79980469 C109.17474976 38.92914429 109.17474976 38.92914429 109.80908203 40.08129883 C110.62461572 41.55581071 111.45165715 43.02402637 112.29101562 44.48510742 C115.08818376 49.5725662 115.08818376 49.5725662 114.88500977 53.14746094 C113.94368341 55.52716914 113.0725737 56.70420262 111.04907227 58.26074219 C107.35646303 59.49161193 103.94351563 59.40883486 100.09794617 59.40791321 C98.86926031 59.41342824 98.86926031 59.41342824 97.61575252 59.41905469 C94.86134174 59.43009874 92.10696868 59.43393657 89.35253906 59.43774414 C87.38156006 59.44400817 85.41058224 59.45065492 83.43960571 59.45765686 C78.07798535 59.47507035 72.71637391 59.48561927 67.35473228 59.49386239 C64.00631604 59.4990111 60.65790258 59.50508684 57.3094883 59.51137352 C46.83686828 59.53042533 36.36425531 59.54465731 25.89162129 59.55298549 C13.79537039 59.56276325 1.69930223 59.58909697 -10.39688426 59.62948638 C-19.7421857 59.65962192 -29.08743468 59.67445187 -38.43278378 59.6777665 C-44.01655917 59.68011961 -49.60013934 59.68911427 -55.18386269 59.71422768 C-60.4361611 59.73746897 -65.68813519 59.74175746 -70.94047165 59.73146629 C-72.868196 59.73096989 -74.79593611 59.73732107 -76.72361183 59.75102234 C-79.3557484 59.76868403 -81.9867138 59.76166363 -84.61885071 59.74848938 C-85.76268651 59.76494325 -85.76268651 59.76494325 -86.9296301 59.78172952 C-92.06231017 59.71971975 -95.01357917 58.53003109 -98.95092773 55.26074219 C-100.02905273 52.94042969 -100.02905273 52.94042969 -99.95092773 50.26074219 C-98.96742875 47.8135653 -97.96677538 45.67419616 -96.70092773 43.38574219 C-96.06869224 42.20192676 -95.43847836 41.01702942 -94.81030273 39.83105469 C-94.49351562 39.23832764 -94.17672852 38.64560059 -93.8503418 38.03491211 C-92.99946057 36.35647729 -92.26773088 34.61917196 -91.54467773 32.88183594 C-89.58555706 28.43059852 -87.21688157 24.35337807 -84.70092773 20.19824219 C-84.2484668 19.42158203 -83.79600586 18.64492188 -83.32983398 17.84472656 C-78.29562139 9.51782871 -73.60927173 5.34249566 -64.13186646 2.91087341 C-58.42970828 1.74544666 -52.71021557 1.40862212 -46.90795898 1.08886719 C-46.24522287 1.04949287 -45.58248676 1.01011856 -44.89966774 0.96955109 C-29.93898331 0.08551926 -14.98286661 -0.04713015 0 0 Z " fill="#101010" transform="translate(478.950927734375,414.7392578125)"/>
<path d="M0 0 C8.74824278 6.10012605 15.71708842 12.55032564 18.140625 23.265625 C19.1992588 32.41394758 19.20433089 41.29335447 14.140625 49.265625 C13.5425 50.296875 12.944375 51.328125 12.328125 52.390625 C5.10855233 61.87920623 -2.12998956 66.10765296 -13.859375 68.265625 C-22.91948537 69.26637357 -32.12821549 67.13961686 -39.859375 62.265625 C-47.44070043 56.1882872 -51.80801581 48.41970257 -54.859375 39.265625 C-55.85448823 26.86749297 -53.94049762 16.90626442 -45.83203125 7.265625 C-33.70573159 -5.02876198 -15.1297757 -9.17707707 0 0 Z " fill="#101010" transform="translate(504.859375,247.734375)"/>
<path d="M0 0 C5.28925614 6.77685943 6.68320797 13.01635904 6.3828125 21.59765625 C5.86995243 25.56970517 4.83368534 27.72881466 2 30.5625 C-3.09423803 33.76344945 -7.2619666 34.01690645 -13.08984375 33.99609375 C-13.95259415 34.0013356 -14.81534454 34.00657745 -15.70423889 34.01197815 C-17.52213468 34.0183785 -19.340072 34.01708717 -21.15795898 34.00854492 C-23.92572425 34.0000362 -26.69142269 34.02882063 -29.45898438 34.06054688 C-31.23177022 34.06215925 -33.00455969 34.06158065 -34.77734375 34.05859375 C-36.00734352 34.07544472 -36.00734352 34.07544472 -37.26219177 34.09263611 C-42.96943133 34.02407814 -46.30879772 32.85510633 -51 29.5625 C-54.35865178 24.90372495 -54.89045204 20.13532908 -54 14.5625 C-51.6962442 9.8663824 -48.69268019 6.82035282 -44 4.5625 C-40.02657982 3.40693472 -36.00271697 2.63524202 -31.9375 1.875 C-30.86177734 1.66294922 -29.78605469 1.45089844 -28.67773438 1.23242188 C-26.67817319 0.8394517 -24.67754396 0.45184766 -22.67553711 0.0715332 C-20.89363159 -0.26748249 -19.11437771 -0.620749 -17.33813477 -0.98828125 C-11.59740864 -2.09122957 -5.33178741 -2.5548148 0 0 Z " fill="#101010" transform="translate(616,509.4375)"/>
<path d="M0 0 C2.08781316 0.407665 4.17923529 0.79039915 6.27197266 1.171875 C7.61991613 1.43080086 8.96758381 1.69116753 10.31494141 1.953125 C11.51860352 2.18354492 12.72226562 2.41396484 13.96240234 2.65136719 C18.76934125 4.08550466 22.23273198 6.15587629 25.20556641 10.21875 C27.24304176 16.44436913 27.4944734 22.28686791 24.58056641 28.21875 C22.04088817 30.97006809 20.08177727 32.42765842 16.33340454 32.91694641 C15.63202362 32.9215538 14.9306427 32.92616119 14.20800781 32.9309082 C13.40682526 32.94044022 12.6056427 32.94997223 11.78018188 32.95979309 C10.9228244 32.95888168 10.06546692 32.95797028 9.18212891 32.95703125 C8.2919809 32.96131638 7.40183289 32.9656015 6.48471069 32.97001648 C4.6035853 32.97575319 2.72243773 32.9762649 0.84130859 32.97192383 C-2.02724364 32.96876891 -4.89475918 32.99221345 -7.76318359 33.01757812 C-9.59391146 33.01985179 -11.4246421 33.0205543 -13.25537109 33.01953125 C-14.10868011 33.028741 -14.96198914 33.03795074 -15.84115601 33.04743958 C-21.98955635 33.00001206 -25.920929 31.58341516 -31.00927734 28.015625 C-33.51858571 24.449455 -33.30993498 21.17032565 -33.23193359 16.90625 C-33.22387695 16.09800781 -33.21582031 15.28976562 -33.20751953 14.45703125 C-33.03091027 9.2055656 -32.37888023 5.26884551 -29.15380859 0.96875 C-21.38731137 -5.89846859 -9.09982571 -1.79111781 0 0 Z " fill="#101010" transform="translate(383.66943359375,510.34375)"/>
</svg>
